<svg width="65" height="64" viewBox="0 0 65 64" fill="none" xmlns="http://www.w3.org/2000/svg">
<path d="M31.6742 63.274C23.2527 63.274 15.752 60.1027 9.31243 53.8059C2.98627 47.6208 -0.143444 39.919 -0.00330739 30.9106C0.130156 22.631 3.86713 14.4826 10.2533 8.55362C16.3126 2.92006 24.0401 -0.0083383 32.0145 0.293694C40.7297 0.0113595 48.4705 3.11704 55.0236 9.53851C61.1829 15.5792 64.346 23.4123 64.1725 32.2041C63.8255 49.781 49.6384 61.1598 36.4655 62.9391C34.8373 63.1624 33.2424 63.2674 31.6742 63.2674V63.274ZM30.8868 3.02512C24.0268 3.02512 17.4203 5.67775 12.1752 10.5562C6.3362 15.9862 2.91954 23.4189 2.79275 30.9631C2.65928 39.1968 5.5154 46.2289 11.281 51.8624C18.2678 58.691 26.6159 61.5012 36.0918 60.2274C48.1169 58.6056 61.0695 48.2183 61.3831 32.1647C61.5433 24.0229 58.7405 17.0696 53.055 11.4952C47.0625 5.61866 40.009 2.77561 32.0679 3.05138H32.0145H31.9611C31.6075 3.03825 31.2471 3.03168 30.8934 3.03168L30.8868 3.02512Z" fill="#0067B1"/>
<path d="M41.5969 10.7598C42.3644 11.0947 44.8401 12.2372 46.1747 13.0448V21.3835H44.8935C44.5932 21.3835 43.6656 17.0828 38.1536 13.3074C36.145 11.9351 33.5892 10.8977 31.2869 10.8977C28.9847 10.8977 27.2029 11.528 25.7215 12.7821C24.2467 14.0362 23.4993 15.612 23.4993 17.5096C23.4993 19.0263 24.1867 20.392 25.568 21.6133C26.9427 22.8345 29.5986 23.9901 33.5291 25.0735C39.6884 26.7938 43.8591 28.9146 46.0413 31.4359C48.2034 33.9572 49.2844 36.7674 49.2844 39.8534C49.2844 42.9394 48.4903 45.6577 46.9088 47.7982C45.3206 49.9387 43.4254 51.6261 41.2299 52.8539C39.0211 54.0818 36.1917 54.699 32.7483 54.699C30.7931 54.699 28.7711 54.4232 26.6824 53.8651C24.5937 53.3135 22.4049 52.5388 20.2028 51.3832C18.688 50.5821 16.2189 49.1705 15.625 48.7896V39.3938H17.0864C17.1532 39.6499 17.2466 39.9847 17.4067 40.3918C18.8081 43.7798 20.73 46.6688 23.2591 48.7305C25.8082 50.8119 28.938 52.2236 32.1344 52.2236C34.8437 52.2236 37.0325 51.4357 38.7008 49.8533C40.3624 48.2709 41.1966 46.485 41.1966 44.4758C41.1966 42.4666 40.4291 40.7792 38.8876 39.4004C37.3528 38.0281 34.5768 36.7083 30.5796 35.4411C26.6958 34.2002 23.8063 33.0183 21.9111 31.889C20.0159 30.7596 18.4945 29.2101 17.36 27.2403C16.2189 25.2639 15.6584 23.2613 15.6584 21.2325C15.6584 17.6934 17.0531 14.6797 19.8424 12.1978C22.6385 9.7224 26.4355 8.48145 31.2402 8.48145C33.8361 8.48145 37.4195 8.93449 41.6103 10.7467L41.5969 10.7598Z" fill="#0067B1"/>
</svg>
